<?xml version="1.0" encoding="utf-8"?>
<!-- Generator: Adobe Illustrator 22.0.1, SVG Export Plug-In . SVG Version: 6.00 Build 0)  -->
<svg version="1.1" id="Camada_1" xmlns="http://www.w3.org/2000/svg" xmlns:xlink="http://www.w3.org/1999/xlink" x="0px" y="0px"
	 viewBox="0 0 200 200" style="enable-background:new 0 0 200 200;" xml:space="preserve">
<style type="text/css">
	.st0{fill:#DD5113;}
</style>
<path class="st0" d="M100.6,1C62.2,1,31,32.1,31,70.5c0,69.5,69.5,128.1,69.5,128.1s69.5-58.6,69.5-128.1C170.1,32.1,139,1,100.6,1z
	 M100.6,113.1C77,113.1,58,94,58,70.5C58,47,77,27.9,100.6,27.9c23.5,0,42.6,19.1,42.6,42.6C143.1,94,124.1,113.1,100.6,113.1z
	 M73.6,70.5c0,14.9,12.1,26.9,26.9,26.9c14.9,0,26.9-12.1,26.9-26.9c0-14.9-12.1-26.9-26.9-26.9C85.7,43.6,73.6,55.6,73.6,70.5z"/>
</svg>
