<?xml version="1.0" encoding="utf-8"?>
<!-- Generator: Adobe Illustrator 22.0.1, SVG Export Plug-In . SVG Version: 6.00 Build 0)  -->
<svg version="1.1" id="Camada_1" xmlns="http://www.w3.org/2000/svg" xmlns:xlink="http://www.w3.org/1999/xlink" x="0px" y="0px"
	 viewBox="0 0 200 200" style="enable-background:new 0 0 200 200;" xml:space="preserve">
<style type="text/css">
	.st0{fill:#FFFFFF;}
	.st1{fill:#DD5113;}
</style>
<g>
	<path id="XMLID_14_" class="st0" d="M197.2,99.3c0,53.8-43.6,97.3-97.3,97.3S2.5,153.1,2.5,99.3C2.5,45.6,46.1,2,99.9,2
		S197.2,45.6,197.2,99.3z"/>
	<path id="XMLID_13_" class="st1" d="M108.4,76.5v-9.2c0-4.5,3-5.5,5.1-5.5c2.1,0,12.9,0,12.9,0V42L108.7,42
		c-19.8,0-24.3,14.7-24.3,24.2v10.4H73v13.9v9.1h11.5c0,26.1,0,57.6,0,57.6h23.1c0,0,0-31.8,0-57.6h17.1l0.8-9.1l1.3-14H108.4z"/>
</g>
</svg>
