<?xml version="1.0" encoding="utf-8"?>
<!-- Generator: Adobe Illustrator 22.0.1, SVG Export Plug-In . SVG Version: 6.00 Build 0)  -->
<svg version="1.1" id="Camada_1" xmlns="http://www.w3.org/2000/svg" xmlns:xlink="http://www.w3.org/1999/xlink" x="0px" y="0px"
	 viewBox="0 0 200 200" style="enable-background:new 0 0 200 200;" xml:space="preserve">
<style type="text/css">
	.st0{fill:#DD5113;}
</style>
<path class="st0" d="M197.7,155.4c0.4,3.2-0.6,5.9-2.9,8.2l-27.4,27.2c-1.2,1.4-2.9,2.5-4.8,3.5c-2,1-3.9,1.6-5.9,1.9
	c-0.1,0-0.5,0-1.2,0.1c-0.7,0.1-1.6,0.1-2.7,0.1c-2.6,0-6.8-0.4-12.7-1.3c-5.8-0.9-13-3.1-21.4-6.6c-8.4-3.5-18-8.8-28.7-15.7
	c-10.7-7-22.1-16.6-34.2-28.8c-9.6-9.5-17.6-18.5-23.9-27.2c-6.3-8.6-11.4-16.6-15.2-24s-6.7-14-8.6-20c-1.9-6-3.2-11.1-3.9-15.4
	c-0.7-4.3-1-7.7-0.8-10.2c0.1-2.5,0.2-3.8,0.2-4.1c0.3-1.9,0.9-3.9,1.9-5.9c1-2,2.1-3.6,3.5-4.8L36.3,4.9C38.2,3,40.4,2,42.9,2
	c1.8,0,3.4,0.5,4.7,1.5c1.4,1,2.5,2.3,3.5,3.8l22,41.8c1.2,2.2,1.6,4.6,1,7.2c-0.5,2.6-1.7,4.8-3.5,6.6L60.6,73
	c-0.3,0.3-0.5,0.7-0.7,1.3c-0.2,0.6-0.3,1.1-0.3,1.5c0.5,2.9,1.8,6.2,3.7,9.9c1.6,3.3,4.2,7.3,7.6,12c3.4,4.7,8.3,10.2,14.6,16.4
	c6.2,6.3,11.7,11.2,16.5,14.7c4.8,3.5,8.8,6.1,12,7.7c3.2,1.6,5.7,2.6,7.4,3l2.6,0.5c0.3,0,0.7-0.1,1.3-0.3c0.6-0.2,1.1-0.4,1.3-0.7
	l11.7-11.9c2.5-2.2,5.4-3.3,8.6-3.3c2.3,0,4.2,0.4,5.6,1.2h0.2l39.7,23.5C195.4,150.4,197.2,152.6,197.7,155.4z"/>
</svg>
