<?xml version="1.0" encoding="utf-8"?>
<!-- Generator: Adobe Illustrator 22.0.1, SVG Export Plug-In . SVG Version: 6.00 Build 0)  -->
<svg version="1.1" id="Camada_1" xmlns="http://www.w3.org/2000/svg" xmlns:xlink="http://www.w3.org/1999/xlink" x="0px" y="0px"
	 viewBox="0 0 200 200" style="enable-background:new 0 0 200 200;" xml:space="preserve">
<style type="text/css">
	.st0{fill:#FFFFFF;}
	.st1{fill:#DD5113;}
</style>
<g>
	<path id="XMLID_9_" class="st0" d="M195.7,99.3c0,52.9-42.9,95.9-95.9,95.9C46.9,195.2,4,152.3,4,99.3C4,46.4,46.9,3.5,99.9,3.5
		C152.8,3.5,195.7,46.4,195.7,99.3z"/>
	<path class="st1" d="M134.7,42.6H65c-12.1,0-21.9,9.8-21.9,21.9v23.2v8.5v37.9c0,12.1,9.8,21.9,21.9,21.9h69.7
		c12.1,0,21.9-9.8,21.9-21.9V96.2v-8.5V64.5C156.6,52.4,146.8,42.6,134.7,42.6z M141,55.6l2.5,0v2.5v16.7l-19.2,0.1l-0.1-19.2
		L141,55.6z M83.7,87.7c3.6-5,9.5-8.3,16.2-8.3s12.6,3.3,16.2,8.3c0.4,0.6,0.8,1.2,1.2,1.9c1.6,2.9,2.6,6.2,2.6,9.7c0,11-9,20-20,20
		c-11,0-20-9-20-20c0-3.5,1-6.9,2.6-9.7C82.8,88.9,83.2,88.3,83.7,87.7z M145.6,134.2c0,6-4.9,10.9-10.9,10.9H65
		c-6,0-10.9-4.9-10.9-10.9V93.6v-5.9h16.9c-0.4,1-0.8,2.1-1.1,3.2c-0.8,2.7-1.2,5.5-1.2,8.4c0,17.1,13.9,31,31,31
		c17.1,0,31-13.9,31-31c0-2.9-0.4-5.8-1.2-8.4c-0.3-1.1-0.7-2.2-1.1-3.2h17v5.9V134.2z"/>
</g>
</svg>
