<?xml version="1.0" encoding="utf-8"?>
<!-- Generator: Adobe Illustrator 22.0.1, SVG Export Plug-In . SVG Version: 6.00 Build 0)  -->
<svg version="1.1" id="Camada_1" xmlns="http://www.w3.org/2000/svg" xmlns:xlink="http://www.w3.org/1999/xlink" x="0px" y="0px"
	 viewBox="0 0 200 200" style="enable-background:new 0 0 200 200;" xml:space="preserve">
<style type="text/css">
	.st0{fill:#FFFFFF;}
	.st1{fill:#DD5113;}
</style>
<g>
	<path id="XMLID_4_" class="st0" d="M198,99.3c0,54.3-44,98.3-98.3,98.3c-54.3,0-98.3-44-98.3-98.3C1.4,45,45.4,1,99.7,1
		C154,1,198,45,198,99.3z"/>
	<polygon id="XMLID_3_" class="st1" points="44,95.5 44,152.6 71.2,152.6 71.2,90.9 71.2,74.9 44,74.9 	"/>
	<path id="XMLID_2_" class="st1" d="M57.6,36.1c-7.5,0-13.6,6.1-13.6,13.6s6.1,13.6,13.6,13.6c7.5,0,13.6-6.1,13.6-13.6
		S65.1,36.1,57.6,36.1z"/>
	<path id="XMLID_1_" class="st1" d="M159.9,98.8c-1.8-14.6-8.6-23.8-28.3-23.8c-11.7,0-19.6,4.4-22.8,10.5h-0.3V74.9H86.7v14.9v62.8
		h22.6v-38.5c0-10.2,1.9-20,14.5-20c12.4,0,13.4,11.6,13.4,20.6v37.8h23.3v-42.7h0C160.5,105.9,160.3,102.2,159.9,98.8z"/>
</g>
</svg>
