<?xml version="1.0" encoding="utf-8"?>
<!-- Generator: Adobe Illustrator 22.0.1, SVG Export Plug-In . SVG Version: 6.00 Build 0)  -->
<svg version="1.1" id="Camada_1" xmlns="http://www.w3.org/2000/svg" xmlns:xlink="http://www.w3.org/1999/xlink" x="0px" y="0px"
	 viewBox="0 0 200 200" style="enable-background:new 0 0 200 200;" xml:space="preserve">
<style type="text/css">
	.st0{fill:#F38C23;}
	.st1{fill:#3E3E3E;}
	.st2{fill:#FFFFFF;}
</style>
<g>
	<path class="st0" d="M63.2,70.5c-6.5,8.1-10.3,18.3-10.3,29.5c0,11.2,3.9,21.4,10.4,29.4L92.7,100L63.2,70.5z"/>
	<path class="st0" d="M129.5,63.2c-2.3-1.8-4.8-3.5-7.4-4.9c-4-2.1-8.3-3.7-12.9-4.6c-3-0.6-6-0.9-9.1-0.9c-3,0-5.9,0.3-8.7,0.8
		c-4.9,0.9-9.6,2.6-13.9,4.9c-2.4,1.3-4.7,2.9-6.9,4.6L100,92.7L129.5,63.2z"/>
	<path class="st0" d="M136.8,129.4c6.5-8.1,10.4-18.3,10.4-29.4c0-11.2-3.9-21.4-10.4-29.5L107.3,100L136.8,129.4z"/>
	<path class="st0" d="M70.6,136.8c1.8,1.4,3.7,2.7,5.7,3.9c3.9,2.3,8.2,4,12.8,5.1c3.5,0.8,7.2,1.3,11,1.3c3.4,0,6.8-0.4,10-1.1
		c5-1.1,9.6-3,13.9-5.5c1.9-1.1,3.8-2.4,5.6-3.8L100,107.3L70.6,136.8z"/>
	<g>
		<g>
			
				<rect x="47" y="101.6" transform="matrix(0.7069 -0.7073 0.7073 0.7069 -89.792 80.0165)" class="st1" width="9.4" height="93.5"/>
		</g>
	</g>
	<g>
		<g>
			
				<rect x="39.3" y="109.3" transform="matrix(0.7071 -0.7071 0.7071 0.7071 -97.4254 76.814)" class="st1" width="9.4" height="93.5"/>
		</g>
	</g>
	<g>
		<g>
			<polygon class="st1" points="72.7,193.4 66.1,200 0,133.9 6.6,127.3 			"/>
		</g>
	</g>
	<g>
		<g>
			<polygon class="st1" points="96.3,96.3 103.7,103.7 20.4,186.9 13.1,179.6 			"/>
		</g>
	</g>
	<g>
		<g>
			<polygon class="st1" points="48.3,184.8 41.7,191.4 8.6,158.4 15.2,151.7 			"/>
		</g>
	</g>
	<g>
		<g>
			
				<rect x="143.7" y="4.9" transform="matrix(0.7067 -0.7075 0.7075 0.7067 6.9622 120.1019)" class="st1" width="9.4" height="93.5"/>
		</g>
	</g>
	<g>
		<g>
			
				<rect x="151.3" y="-2.7" transform="matrix(0.7071 -0.7071 0.7071 0.7071 14.5743 123.1947)" class="st1" width="9.4" height="93.5"/>
		</g>
	</g>
	<g>
		<g>
			
				<rect x="159" y="-10.4" transform="matrix(0.7071 -0.7071 0.7071 0.7071 22.2283 126.367)" class="st1" width="9.4" height="93.5"/>
		</g>
	</g>
	<g>
		<g>
			<polygon class="st1" points="96.3,96.3 103.7,103.7 186.9,20.4 179.6,13.1 			"/>
		</g>
	</g>
	<g>
		<g>
			
				<rect x="166.9" y="5.1" transform="matrix(0.7071 -0.7071 0.7071 0.7071 30.1442 129.6474)" class="st1" width="9.4" height="46.7"/>
		</g>
	</g>
	<g>
		<g>
			<polygon class="st2" points="3.9,132.6 52.1,182 2.6,133.9 			"/>
		</g>
	</g>
	<g>
		<g>
			<polygon class="st2" points="11.6,124.9 59.7,174.4 10.3,126.2 			"/>
		</g>
	</g>
	<g>
		<g>
			<polygon class="st2" points="19.2,117.3 67.4,166.7 17.9,118.6 			"/>
		</g>
	</g>
	<g>
		<g>
			<polygon class="st2" points="116.1,20.4 164.2,69.9 114.8,21.7 			"/>
		</g>
	</g>
	<g>
		<g>
			<polygon class="st2" points="123.7,12.8 171.9,62.2 122.4,14.1 			"/>
		</g>
	</g>
	<g>
		<g>
			<polygon class="st2" points="131.4,5.1 179.5,54.6 130.1,6.4 			"/>
		</g>
	</g>
	<g>
		<g>
			
				<rect x="101.6" y="143.7" transform="matrix(0.7067 -0.7075 0.7075 0.7067 -61.4494 148.4585)" class="st1" width="93.5" height="9.4"/>
		</g>
	</g>
	<g>
		<g>
			
				<rect x="109.3" y="151.3" transform="matrix(0.7069 -0.7073 0.7073 0.7069 -64.6206 156.0619)" class="st1" width="93.5" height="9.4"/>
		</g>
	</g>
	<g>
		<g>
			<polygon class="st1" points="127.3,193.4 133.9,200 200,133.9 193.4,127.3 			"/>
		</g>
	</g>
	<g>
		<g>
			<polygon class="st1" points="103.7,96.3 96.3,103.7 179.6,186.9 186.9,179.6 			"/>
		</g>
	</g>
	<g>
		<g>
			<polygon class="st1" points="151.7,184.8 158.4,191.4 191.4,158.4 184.8,151.7 			"/>
		</g>
	</g>
	<g>
		<g>
			
				<rect x="4.9" y="47" transform="matrix(0.7075 -0.7067 0.7067 0.7075 -21.3956 51.6149)" class="st1" width="93.5" height="9.4"/>
		</g>
	</g>
	<g>
		<g>
			
				<rect x="-2.7" y="39.3" transform="matrix(0.7069 -0.7073 0.7073 0.7069 -18.2263 44.0242)" class="st1" width="93.5" height="9.4"/>
		</g>
	</g>
	<g>
		<g>
			<polygon class="st1" points="6.6,72.7 0,66.1 66.1,0 72.7,6.6 			"/>
		</g>
	</g>
	<g>
		<g>
			<polygon class="st1" points="103.7,96.3 96.3,103.7 13.1,20.4 20.4,13.1 			"/>
		</g>
	</g>
	<g>
		<g>
			<polygon class="st1" points="15.2,48.3 8.6,41.7 41.7,8.6 48.3,15.2 			"/>
		</g>
	</g>
	<g>
		<g>
			<polygon class="st2" points="196.1,132.6 147.9,182 197.4,133.9 			"/>
		</g>
	</g>
	<g>
		<g>
			<polygon class="st2" points="188.4,124.9 140.3,174.4 189.7,126.2 			"/>
		</g>
	</g>
	<g>
		<g>
			<polygon class="st2" points="180.8,117.3 132.6,166.7 182.1,118.6 			"/>
		</g>
	</g>
	<g>
		<g>
			<polygon class="st2" points="83.9,20.4 35.8,69.9 85.2,21.7 			"/>
		</g>
	</g>
	<g>
		<g>
			<polygon class="st2" points="76.3,12.8 28.1,62.2 77.6,14.1 			"/>
		</g>
	</g>
	<g>
		<g>
			<polygon class="st2" points="68.6,5.1 20.5,54.6 69.9,6.4 			"/>
		</g>
	</g>
	<path class="st2" d="M136.8,129.4L107.3,100l29.5-29.5c-2.2-2.7-4.6-5.2-7.3-7.3L100,92.7L70.5,63.2c-2.7,2.2-5.2,4.6-7.3,7.3
		L92.7,100l-29.5,29.4c2.2,2.7,4.6,5.2,7.3,7.3l29.4-29.4l29.4,29.4C132.1,134.6,134.6,132.1,136.8,129.4z"/>
	<g>
		<path d="M61.4,114.5V90.3h-4.4v-4.9h14.5v4.9H67v24.2H61.4z"/>
		<path d="M72,114.5v-29h7c3.1,0,5.4,0.7,6.9,2.1c1.6,1.4,2.3,3.4,2.3,6.1c0,1.9-0.4,3.4-1.2,4.7c-0.8,1.3-2,2.1-3.5,2.6l5.2,13.6
			H83l-4.9-13.7h-0.5v13.7H72z M77.5,97.9c0.1,0,0.2,0,0.3,0c0.1,0,0.3,0,0.3,0c1.4,0,2.5-0.4,3.3-1.1c0.8-0.7,1.2-1.7,1.2-3.1
			c0-1.3-0.4-2.3-1.2-3c-0.8-0.7-1.9-1-3.4-1h-0.6V97.9z"/>
		<path d="M95.7,114.5h-5.6v-29h5.6V114.5z"/>
		<path d="M98.2,114.5v-29h6.6c2.9,0,5.1,0.8,6.6,2.4c1.4,1.6,2.2,4.1,2.2,7.3c0,3.1-0.8,5.4-2.4,7.2c-1.6,1.7-3.8,2.6-6.7,2.6h-0.5
			v9.5H98.2z M103.8,89.8v10.7h0.2c1.2,0,2.1-0.5,2.8-1.4c0.6-0.9,0.9-2.3,0.9-4.1c0-1.7-0.3-3-1-3.9
			C106.1,90.3,105.1,89.8,103.8,89.8z"/>
		<path d="M114.6,114.5v-29h5.6v24.4h6.6v4.7H114.6z"/>
		<path d="M143.1,100.6c0,4.9-0.7,8.5-2.1,10.9c-1.4,2.4-3.6,3.6-6.4,3.6c-2.9,0-5.1-1.2-6.5-3.7c-1.4-2.5-2.1-6.3-2.1-11.4
			c0-5.2,0.7-9,2.1-11.4c1.4-2.4,3.5-3.7,6.5-3.7c3,0,5.2,1.2,6.5,3.7S143.1,95.1,143.1,100.6z M131.7,99.8c0,4,0.2,6.7,0.6,8.2
			c0.4,1.5,1.1,2.3,2.1,2.3c1,0,1.7-0.8,2.1-2.3c0.4-1.5,0.6-4.2,0.6-8.2c0-3.9-0.2-6.6-0.6-8.2c-0.4-1.5-1.1-2.3-2.1-2.3
			c-1,0-1.7,0.7-2.1,2.2C131.9,93.1,131.7,95.8,131.7,99.8z"/>
	</g>
</g>
</svg>
