<?xml version="1.0" encoding="utf-8"?>
<!-- Generator: Adobe Illustrator 22.0.1, SVG Export Plug-In . SVG Version: 6.00 Build 0)  -->
<svg version="1.1" id="Camada_1" xmlns="http://www.w3.org/2000/svg" xmlns:xlink="http://www.w3.org/1999/xlink" x="0px" y="0px"
	 viewBox="0 0 970 480" style="enable-background:new 0 0 970 480;" xml:space="preserve">
<path d="M399.5,244c12.6-41.2,25.1-82.1,37.6-123c2.8,0.2,5.6,0.3,8.4,0.5c13.1,74.4,26.1,148.9,39.2,223.3c1,0.1,1.9,0.2,2.9,0.4
	c2.9-9.3,5.9-18.6,8.7-27.9c2.9-9.4,5.5-18.8,8.4-28.2c8-25.6,16.3-51.1,24-76.9c3-10.1,8.6-13.1,19.1-12.9
	c49.8,0.6,99.5,0.4,149.3,0.3c31.8-0.1,41.8-10.3,41.4-42.1C738,104.1,703.3,53.9,652.5,33C599.3,11.2,538.9,22.7,499,64
	c-10.1,10.4-15.3,12.1-26.4,0.7c-45-46.3-114.2-55.4-170.2-23.9c-54.9,30.9-81.5,94.4-65.9,157.5c1.1,4.5,2.2,9,3.5,13.9
	c-12.7,5.2-13.2-4.9-15.1-11.4c-16.2-56.1,4.6-119.5,51-156.5c60.3-48,142.4-45.7,199.7,5.5c3,2.7,6,5.5,10,9
	c21.7-21.4,46.2-36.9,75.7-44.3C658.6-10,754.8,66.1,751,164.7c-1.2,31.1-16.5,46.3-48,46.5c-47.2,0.3-94.4,0.6-141.5-0.2
	c-14.5-0.2-21.5,3.3-25.7,18.7c-13.3,47.8-28.7,95.1-43.7,142.4c-1.3,4.2-5.5,7.5-8.4,11.3c-2.4-4.1-6.1-8-6.9-12.4
	c-6.4-34.5-12.2-69.1-18.2-103.6c-5.9-34.5-11.8-68.9-18.3-106.7c-2.8,4.9-4.4,7-5.2,9.3c-6.9,22.2-13.9,44.4-20.3,66.7
	c-6,20.7-8.9,21.8-30.2,21.3c-41.1-0.9-82.2-0.1-123.3-0.2c-25.2-0.1-50.3-0.2-75.5-1.1c-12.8-0.4-23.7-13.4-24.1-28
	c-0.5-18.7-0.4-37.3-0.7-56c-0.3-13.9-7.7-23.1-18.5-21.9c-12.7,1.4-16.9,10.2-16.9,22.1c0,47.4,0.1,94.8-0.2,142.1
	c-0.1,19.4-9.8,31.9-25,34.1c-19.9,2.9-34.9-10.2-35.2-31.6c-0.4-27.5,0-55-0.1-82.5c-0.1-16.3-6-24.3-17.8-23.7
	c-14.7,0.7-16.9,11-16.8,23c0.1,19.2,0.4,38.4-0.3,57.6c-0.2,4.5-4.1,8.9-6.3,13.3c-1.9-4.6-5.2-9.2-5.4-13.8
	c-0.6-20.2-0.5-40.5-0.2-60.7c0.3-19.4,11.5-31.6,28.7-31.8c18.1-0.2,30,12,30.2,32.1c0.3,27.5,0,55,0.1,82.5
	c0.1,15.6,6.5,24,18.4,23.5c15.4-0.7,17.7-11.5,17.7-24.1c-0.1-44.9-0.5-89.8,0.1-134.7c0.1-9.4,2.1-20,6.8-27.9
	c6.7-11.2,18.9-14.1,31.6-10.3c14.1,4.2,21.2,14.6,21.6,29c0.5,17.6,0,35.3,0,52.9c0.1,15.3,7.1,23.4,22.2,23.3
	c35.5,0,71-1,106.5-1.2C334.3,243.8,366.6,244,399.5,244z"/>
<path d="M276.1,285c5.9,4.2,12.9,7.4,17.6,12.6c53,57.8,114.7,104.9,179.2,148.9c9,6.2,15.4,6.7,24.7,0.4
	C564.3,401.6,628,352.6,682,292.3c10.3-11.5,18.3-26.1,30.7-34.5c11.4-7.8,27.2-9.1,41.1-13.3c0.4-0.1,1,0.4,1.5,0.4
	c32.1-0.9,45.5,6.4,42.2-38.3c-0.9-12.4-0.5-24.9,0-37.4c0.7-17.5,13.2-30.4,28.9-30.8c16.7-0.5,29.7,10.1,30.6,28.6
	c1.3,28.4,0.4,56.8,0.4,85.2c0,20.6-0.1,41.3,0.3,61.9c0.3,15.9,7.1,24.1,18.9,22.9c13.8-1.3,17.4-10.6,17.3-23.1
	c-0.3-28-0.2-56.1,0-84.1c0.1-14.4,6.6-25.5,20.6-29.8c12.9-3.9,24.8-0.8,33,11c2,2.9,4.5,6.4,4.5,9.7c0.5,25.9,0.6,51.9,0.3,77.8
	c0,2.1-4.4,4.2-6.8,6.3c-1.7-2.8-4.7-5.6-4.8-8.5c-0.4-22.3,0.2-44.6-0.3-67c-0.4-15.5-14.1-24.3-25.2-15.7
	c-5.1,4-8.5,12.9-8.8,19.8c-1,27-0.3,54-0.4,81c-0.1,21.4-11.1,34.3-29.3,34.8c-18.8,0.6-31.1-12.4-31.3-34.6
	c-0.4-43.9-0.1-87.7-0.1-131.6c0-5.2,1.6-11.5-0.7-15.3c-4.2-6.6-10.2-15.2-16.7-16.5c-10.1-1.9-17.4,6-17.8,17
	c-0.6,17.6-0.3,35.3-0.5,52.9c-0.3,25.3-9.7,34.9-34.7,35.3c-11.8,0.2-24.2-1.9-35.3,0.8c-9.8,2.4-21.1,8.1-27,15.9
	c-55.7,74.2-128.8,128.6-204,180.5c-26.7,18.4-18.2,18.5-45.3,0.2c-64.6-43.7-126.4-90.8-178.8-149.2c-4.4-4.9-8-10.4-12-15.6
	C273.6,288,274.9,286.5,276.1,285z"/>
</svg>
